<svg aria-hidden="true" style="position: absolute; width: 0; height: 0; overflow: hidden;" version="1.1" xmlns="http://www.w3.org/2000/svg" xmlns:xlink="http://www.w3.org/1999/xlink">
<defs>
  
   
  <symbol id="icon-links" viewBox="0 0 8.467 8.467">
    <path   d="M7.576.553c-1.234-.957-2.905-.608-3.941.555l-.483.543a3.29 3.29 0 0 0-.456.655l.053-.023a2.527 2.527 0 0 1 .988-.18 2.4 2.4 0 0 1 .54.077l.295-.32c.712-.769 1.662-.966 2.268-.48.605.486.564 1.378-.148 2.148l-.503.544c-.712.77-1.616 1.021-2.222.535a1.25 1.25 0 0 1-.443-.717l-.047.017a2.893 2.893 0 0 0-.076.026c-.025.009-.049.022-.073.032-.024.01-.044.021-.067.031-.024.01-.047.025-.07.035-.023.01-.04.024-.063.035-.022.011-.04.025-.06.037-.022.012-.035.03-.054.043-.019.013-.04.024-.06.037a1.765 1.765 0 0 0-.26.207 1.47 1.47 0 0 0-.124.142l-.007.01c.143.33.365.635.667.892 1.21 1.027 2.79.585 3.887-.6l.493-.533C8.67 3.157 8.844 1.536 7.576.553zM5.171 2.982c-1.23-1.004-2.802-.533-3.873.672l-.483.543C-.22 5.36-.361 6.984.927 7.943c1.254.934 2.918.553 3.93-.629l.47-.551c.18-.21.328-.434.443-.664-.018.008-.035.017-.053.024a2.54 2.54 0 0 1-.873.197 2.465 2.465 0 0 1-.55-.042 2.265 2.265 0 0 1-.102-.023l-.288.325c-.697.782-1.642.997-2.258.522-.615-.474-.593-1.366.103-2.15l.492-.553c.696-.783 1.595-1.051 2.21-.577.226.174.4.436.458.709.019-.006.028-.011.047-.018l.076-.027.072-.033c.024-.01.043-.023.066-.033.024-.01.047-.026.07-.037.022-.01.04-.024.061-.035.022-.012.04-.027.06-.039.021-.012.034-.03.053-.043.019-.014.04-.025.059-.038a1.786 1.786 0 0 0 .255-.213 1.383 1.383 0 0 0 .122-.144l.006-.01a2.445 2.445 0 0 0-.685-.88z" />

  </symbol>
  
  
  
<symbol id="icon-add-to-list" viewBox="0 0 32 32">
  <path d="M23.448 9.333h-3.448v-3.448zM27.609 9.724l-8-8c-0.123-0.123-0.269-0.221-0.432-0.289s-0.337-0.101-0.511-0.101h-10.667c-1.104 0-2.107 0.449-2.828 1.172s-1.172 1.724-1.172 2.828v21.333c0 1.104 0.449 2.107 1.172 2.828s1.724 1.172 2.828 1.172h16c1.104 0 2.107-0.449 2.828-1.172s1.172-1.724 1.172-2.828v-16c0-0.368-0.149-0.701-0.391-0.943zM17.333 4v6.667c0 0.736 0.597 1.333 1.333 1.333h6.667v14.667c0 0.368-0.148 0.7-0.391 0.943s-0.575 0.391-0.943 0.391h-16c-0.368 0-0.7-0.148-0.943-0.391s-0.391-0.575-0.391-0.943v-21.333c0-0.368 0.148-0.7 0.391-0.943s0.575-0.391 0.943-0.391zM12 21.333h2.667v2.667c0 0.736 0.597 1.333 1.333 1.333s1.333-0.597 1.333-1.333v-2.667h2.667c0.736 0 1.333-0.597 1.333-1.333s-0.597-1.333-1.333-1.333h-2.667v-2.667c0-0.736-0.597-1.333-1.333-1.333s-1.333 0.597-1.333 1.333v2.667h-2.667c-0.736 0-1.333 0.597-1.333 1.333s0.597 1.333 1.333 1.333z"></path>
</symbol>
<symbol id="icon-trash" viewBox="0 0 32 32">
<path d="M29.98 6.819c-0.096-1.57-1.387-2.816-2.98-2.816h-3v-1.002c0-1.657-1.344-3-3-3h-10c-1.657 0-3 1.343-3 3v1.001h-3c-1.595 0-2.885 1.246-2.981 2.816h-0.019v2.183c0 1.104 0.896 2 2 2v0 17c0 2.209 1.791 4 4 4h16c2.209 0 4-1.791 4-4v-17c1.104 0 2-0.896 2-2v-2.182h-0.020zM10 3.002c0-0.553 0.447-1 1-1h10c0.553 0 1 0.447 1 1v1h-12v-1zM26 28.002c0 1.102-0.898 2-2 2h-16c-1.103 0-2-0.898-2-2v-17h20v17zM28 8.001v1h-24v-1.999c0-0.553 0.447-1 1-1h22c0.553 0 1 0.447 1 1v0.999zM9 28.006h2c0.553 0 1-0.447 1-1v-13c0-0.553-0.447-1-1-1h-2c-0.553 0-1 0.447-1 1v13c0 0.553 0.447 1 1 1zM9 14.005h2v13h-2v-13zM15 28.006h2c0.553 0 1-0.447 1-1v-13c0-0.553-0.447-1-1-1h-2c-0.553 0-1 0.447-1 1v13c0 0.553 0.447 1 1 1zM15 14.005h2v13h-2v-13zM21 28.006h2c0.553 0 1-0.447 1-1v-13c0-0.553-0.447-1-1-1h-2c-0.553 0-1 0.447-1 1v13c0 0.553 0.447 1 1 1zM21 14.005h2v13h-2v-13z"></path>
</symbol>
<symbol id="icon-pen" viewBox="0 0 32 32">
<path d="M29.395 2.58c-1.645-1.643-3.811-2.58-5.946-2.58-1.801 0-3.459 0.668-4.67 1.877l-4.867 4.904c-0.015 0.014-0.032 0.023-0.047 0.038-0.008 0.008-0.013 0.019-0.021 0.026l0.002 0.002-10.329 10.409c-0.476 0.473-0.821 1.062-1.013 1.705l-2.349 8.508c-0.002 0.023-0.155 0.691-0.155 1.031 0 1.932 1.569 3.5 3.504 3.5 0.385 0 1.13-0.184 1.157-0.188l8.478-2.229c0.644-0.191 1.229-0.539 1.705-1.016l15.263-15.383c2.776-2.778 2.463-7.434-0.712-10.604zM16.014 23.795c-0.082-0.902-0.337-1.787-0.719-2.627l9.455-9.454c0.578 1.826 0.281 3.736-0.986 5.004-0.008 0.008-0.018 0.013-0.025 0.021l0.014 0.013-7.728 7.79c0-0.249 0.012-0.493-0.011-0.747zM14.793 20.256c-0.373-0.613-0.797-1.205-1.322-1.729-0.611-0.611-1.312-1.090-2.044-1.492l9.532-9.532c0.748 0.332 1.465 0.805 2.098 1.438 0.541 0.539 0.959 1.143 1.281 1.771l-9.545 9.544zM10.486 16.562c-0.926-0.373-1.896-0.586-2.868-0.599l7.703-7.762c1.179-1.15 2.896-1.481 4.587-1.062l-9.422 9.423zM4.167 29.873c-0.109 0.025-0.448 0.111-0.678 0.127-0.822-0.010-1.489-0.678-1.489-1.5 0.012-0.168 0.079-0.457 0.102-0.562l1.053-3.814c1.143-0.031 2.373 0.414 3.34 1.383 0.982 0.98 1.444 2.234 1.394 3.391l-3.722 0.975zM8.874 28.637c-0.024-1.342-0.57-2.738-1.672-3.838-1.042-1.043-2.406-1.645-3.766-1.699l0.996-3.607c0.072-0.24 0.215-0.477 0.391-0.684 2.006-1.436 5.091-1.012 7.234 1.133 2.267 2.266 2.617 5.586 0.871 7.568-0.116 0.061-0.233 0.119-0.359 0.156l-3.695 0.971zM28.691 11.772l-1.684 1.697c0-0.226 0.027-0.443 0.006-0.674-0.176-1.935-1.078-3.806-2.543-5.269-1.629-1.63-3.789-2.565-5.928-2.571l1.656-1.67c0.829-0.827 1.986-1.285 3.251-1.285 1.609 0 3.262 0.728 4.533 1.995 1.193 1.191 1.904 2.671 2.006 4.168 0.094 1.397-0.367 2.678-1.297 3.609z"></path>
</symbol>

  <symbol id="icon-eye" viewBox="0 0 32 32">
    <path d="M16 9v0 0c9 0 13 7 13 7s-4 7-13 7c-9 0-13-7-13-7s4-7 13-7zM16 10c-8 0-11.8 6-11.8 6s3.8 6 11.8 6c8 0 11.8-6 11.8-6s-3.8-6-11.8-6v0 0zM16 20v0 0c-2.209 0-4-1.791-4-4s1.791-4 4-4c2.209 0 4 1.791 4 4s-1.791 4-4 4zM16 19c1.657 0 3-1.343 3-3s-1.343-3-3-3c-1.657 0-3 1.343-3 3s1.343 3 3 3v0 0zM16 17c0.552 0 1-0.448 1-1s-0.448-1-1-1c-0.552 0-1 0.448-1 1s0.448 1 1 1v0 0z"></path>
  </symbol>

  <symbol id="icon-settings" viewBox="0 0 32 32">
    <path d="M21.333 16c0-1.472-0.599-2.808-1.563-3.771s-2.299-1.563-3.771-1.563-2.808 0.599-3.771 1.563-1.563 2.299-1.563 3.771 0.599 2.808 1.563 3.771 2.299 1.563 3.771 1.563 2.808-0.599 3.771-1.563 1.563-2.299 1.563-3.771zM18.667 16c0 0.737-0.297 1.401-0.781 1.885s-1.148 0.781-1.885 0.781-1.401-0.297-1.885-0.781-0.781-1.148-0.781-1.885 0.297-1.401 0.781-1.885 1.148-0.781 1.885-0.781 1.401 0.297 1.885 0.781 0.781 1.148 0.781 1.885zM27.087 20.539c0.061-0.14 0.149-0.255 0.256-0.343 0.149-0.123 0.335-0.195 0.537-0.196h0.12c1.104 0 2.107-0.449 2.828-1.172s1.172-1.724 1.172-2.828-0.449-2.107-1.172-2.828-1.724-1.172-2.828-1.172h-0.212c-0.147-0.001-0.287-0.037-0.411-0.101-0.169-0.088-0.307-0.229-0.389-0.416-0.004-0.039-0.005-0.079-0.005-0.119-0.032-0.073-0.053-0.148-0.065-0.224 0.027-0.445 0.103-0.605 0.224-0.729l0.083-0.083c0.78-0.781 1.171-1.808 1.169-2.829s-0.392-2.048-1.175-2.829c-0.781-0.78-1.808-1.171-2.829-1.169s-2.048 0.392-2.827 1.172l-0.061 0.061c-0.111 0.107-0.244 0.181-0.384 0.221-0.187 0.052-0.388 0.043-0.584-0.044-0.135-0.059-0.249-0.147-0.337-0.253-0.123-0.149-0.195-0.335-0.196-0.537v-0.12c0-1.104-0.449-2.107-1.172-2.828s-1.724-1.172-2.828-1.172-2.107 0.449-2.828 1.172-1.172 1.724-1.172 2.828v0.212c-0.001 0.147-0.037 0.287-0.101 0.411-0.088 0.169-0.229 0.307-0.416 0.389-0.039 0.004-0.079 0.005-0.119 0.005-0.073 0.032-0.148 0.053-0.224 0.065-0.447-0.028-0.607-0.104-0.731-0.225l-0.083-0.083c-0.781-0.78-1.807-1.171-2.829-1.171s-2.047 0.392-2.829 1.176c-0.78 0.781-1.171 1.807-1.171 2.829s0.392 2.048 1.172 2.827l0.064 0.063c0.107 0.111 0.181 0.244 0.221 0.384 0.052 0.187 0.043 0.388-0.041 0.579-0.008 0.021-0.017 0.045-0.028 0.069-0.055 0.145-0.144 0.271-0.255 0.367-0.147 0.127-0.333 0.204-0.511 0.208h-0.12c-1.104 0-2.107 0.449-2.828 1.172s-1.172 1.725-1.172 2.829 0.449 2.107 1.172 2.828 1.724 1.172 2.828 1.172h0.212c0.147 0.001 0.287 0.037 0.411 0.101 0.171 0.089 0.311 0.232 0.395 0.428 0.032 0.073 0.053 0.148 0.065 0.224-0.027 0.445-0.103 0.605-0.224 0.729l-0.083 0.083c-0.78 0.781-1.171 1.808-1.169 2.829s0.392 2.048 1.175 2.829c0.781 0.78 1.808 1.171 2.829 1.169s2.048-0.392 2.827-1.172l0.063-0.064c0.111-0.107 0.244-0.181 0.384-0.221 0.187-0.052 0.388-0.043 0.579 0.041 0.021 0.008 0.045 0.017 0.069 0.028 0.145 0.055 0.271 0.144 0.367 0.255 0.127 0.147 0.204 0.333 0.208 0.511v0.123c0 1.104 0.449 2.107 1.172 2.828s1.724 1.172 2.828 1.172 2.107-0.449 2.828-1.172 1.172-1.724 1.172-2.828v-0.212c0.001-0.147 0.037-0.287 0.101-0.411 0.089-0.171 0.232-0.311 0.428-0.395 0.073-0.032 0.148-0.053 0.224-0.065 0.445 0.027 0.605 0.103 0.729 0.224l0.083 0.083c0.781 0.78 1.808 1.171 2.829 1.169s2.048-0.392 2.829-1.175c0.78-0.781 1.171-1.808 1.169-2.829s-0.392-2.048-1.172-2.827l-0.064-0.063c-0.107-0.111-0.181-0.244-0.221-0.384-0.052-0.187-0.043-0.388 0.041-0.579zM24.528 12.403c-0.016-0.268-0.051-0.396-0.101-0.509v0.107c0 0.057 0.004 0.112 0.011 0.167 0.028 0.080 0.057 0.159 0.091 0.236 0.005 0.12 0.007 0.121 0.007 0.123 0.332 0.775 0.912 1.373 1.611 1.737 0.495 0.257 1.047 0.397 1.615 0.404h0.24c0.368 0 0.7 0.148 0.943 0.391s0.391 0.575 0.391 0.943-0.148 0.7-0.391 0.943-0.575 0.391-0.943 0.391h-0.12c-0.849 0.004-1.627 0.304-2.233 0.804-0.431 0.355-0.775 0.809-1 1.324-0.343 0.776-0.384 1.613-0.169 2.376 0.159 0.564 0.455 1.085 0.869 1.515l0.096 0.097c0.261 0.261 0.392 0.6 0.392 0.943s-0.129 0.683-0.389 0.943c-0.263 0.263-0.601 0.393-0.945 0.393s-0.683-0.129-0.943-0.389l-0.081-0.081c-0.617-0.604-1.387-0.936-2.176-1.003-0.583-0.049-1.176 0.045-1.724 0.283-0.771 0.331-1.369 0.911-1.733 1.608-0.257 0.495-0.397 1.047-0.404 1.615v0.241c0 0.368-0.148 0.7-0.391 0.943s-0.573 0.389-0.941 0.389-0.7-0.148-0.943-0.391-0.391-0.575-0.391-0.943v-0.12c-0.020-0.88-0.34-1.656-0.859-2.256-0.379-0.437-0.861-0.78-1.411-0.992-0.767-0.329-1.591-0.365-2.341-0.155-0.564 0.159-1.085 0.455-1.515 0.869l-0.097 0.096c-0.261 0.261-0.6 0.392-0.943 0.392s-0.683-0.129-0.943-0.389c-0.263-0.263-0.393-0.601-0.393-0.945s0.129-0.683 0.389-0.943l0.081-0.081c0.604-0.617 0.936-1.387 1.003-2.176 0.049-0.583-0.045-1.176-0.283-1.724-0.331-0.771-0.911-1.369-1.608-1.733-0.495-0.257-1.047-0.397-1.615-0.404l-0.24 0.001c-0.368 0-0.7-0.148-0.943-0.391s-0.391-0.575-0.391-0.943 0.148-0.7 0.391-0.943 0.575-0.391 0.943-0.391h0.12c0.88-0.020 1.656-0.34 2.256-0.859 0.437-0.379 0.78-0.861 0.992-1.411 0.329-0.767 0.365-1.591 0.155-2.341-0.159-0.564-0.455-1.085-0.869-1.515l-0.097-0.097c-0.261-0.261-0.392-0.6-0.392-0.943s0.129-0.683 0.389-0.943c0.263-0.263 0.601-0.393 0.945-0.393s0.683 0.129 0.943 0.389l0.081 0.081c0.617 0.604 1.387 0.936 2.176 1.003 0.493 0.043 0.993-0.019 1.468-0.183 0.128-0.016 0.248-0.048 0.355-0.096-0.041 0.001-0.081 0.004-0.119 0.005-0.268 0.016-0.396 0.051-0.509 0.101h0.107c0.057 0 0.112-0.004 0.167-0.011 0.080-0.028 0.159-0.057 0.236-0.091 0.12-0.005 0.121-0.007 0.123-0.007 0.775-0.332 1.373-0.912 1.737-1.611 0.257-0.493 0.397-1.047 0.404-1.613v-0.241c0-0.368 0.148-0.7 0.391-0.943s0.575-0.391 0.943-0.391 0.7 0.148 0.943 0.391 0.391 0.575 0.391 0.943v0.12c0.004 0.849 0.304 1.627 0.804 2.233 0.355 0.431 0.809 0.775 1.328 1.001 0.771 0.34 1.608 0.381 2.371 0.167 0.564-0.159 1.085-0.455 1.515-0.869l0.097-0.096c0.261-0.261 0.6-0.392 0.943-0.392s0.683 0.129 0.943 0.389c0.263 0.263 0.393 0.601 0.393 0.945s-0.129 0.683-0.389 0.943l-0.081 0.081c-0.604 0.617-0.936 1.387-1.003 2.176-0.043 0.493 0.019 0.993 0.183 1.468 0.016 0.127 0.049 0.247 0.096 0.355-0.001-0.043-0.003-0.083-0.005-0.119z"></path>
  </symbol>
  
  <symbol id="icon-document-edit" viewBox="0 0 32 32">
    <path d="M26.443 12.15l-11.286 11.3-2.606-2.606 11.292-11.294 2.6 2.6zM27.15 11.443l-2.599-2.599 1.727-1.728c0.391-0.391 1.024-0.388 1.417 0.003l1.18 1.177c0.392 0.391 0.395 1.025 0.005 1.416l-1.729 1.731zM11.904 21.611l2.495 2.495-3.135 0.617 0.64-3.113zM22 10v0l-6-7h-10.997c-1.106 0-2.003 0.898-2.003 2.007v22.985c0 1.109 0.891 2.007 1.997 2.007h15.005c1.103 0 1.997-0.898 1.997-1.991v-10.009l7.58-7.58c0.784-0.784 0.786-2.054 0.010-2.83l-1.18-1.179c-0.779-0.779-2.037-0.783-2.83 0.010l-3.58 3.58zM21 19v9.007c0 0.548-0.448 0.993-1 0.993h-15c-0.545 0-1-0.446-1-0.995v-23.009c0-0.54 0.446-0.995 0.996-0.995h10.004v4.994c0 1.119 0.895 2.006 1.998 2.006h4.002l-10 10-1 5 5-1 6-6zM16 4.5l4.7 5.5h-3.703c-0.546 0-0.997-0.452-0.997-1.009v-4.491z"></path>
  </symbol>

  <symbol id="icon-pen-angled" viewBox="0 0 32 32">
    <path d="M22.443 12.15l-11.286 11.3-2.606-2.606 11.292-11.294 2.6 2.6zM23.15 11.443l-2.599-2.599 1.727-1.728c0.391-0.391 1.024-0.388 1.417 0.003l1.18 1.177c0.392 0.391 0.395 1.025 0.005 1.416l-1.729 1.731zM7.904 21.611l2.495 2.495-3.135 0.617 0.64-3.113zM7 21l-1 5 5-1 14.58-14.58c0.784-0.784 0.786-2.054 0.010-2.83l-1.18-1.179c-0.779-0.779-2.037-0.783-2.83 0.010l-14.58 14.58z"></path>
  </symbol>

  <symbol id="icon-trash-can" viewBox="0 0 32 32">
    <path d="M23 7h4v1h-2v18.993c0 1.671-1.343 3.007-3 3.007h-11c-1.666 0-3-1.346-3-3.007v-18.993h-2v-1h6v-1.995c0-1.111 0.894-2.005 1.997-2.005h5.005c1.102 0 1.997 0.898 1.997 2.005v1.995h2zM9 8v19.005c0 1.102 0.893 1.995 1.992 1.995h11.016c1.1 0 1.992-0.902 1.992-1.995v-19.005h-15zM12 10v17h1v-17h-1zM16 10v17h1v-17h-1zM20 10v17h1v-17h-1zM14.003 4c-0.554 0-1.003 0.443-1.003 0.999v2.001h7v-2.001c0-0.552-0.438-0.999-1.003-0.999h-4.994z"></path>
  </symbol>
  
  <symbol id="icon-view-tile" viewBox="0 0 32 32">
    <path d="M19.426 21.469c0.429 0.434 0.429 1.134 0 1.565-0.429 0.432-1.122 0.435-1.55 0l-6.128-6.253c-0.429-0.432-0.429-1.131 0-1.566l6.128-6.253c0.427-0.432 1.122-0.432 1.55 0 0.429 0.434 0.429 1.134 0 1.565l-5.026 5.474 5.026 5.469z"></path>
  </symbol>

  <symbol id="icon-chevron-down" viewBox="0 0 32 32">
    <path d="M21.469 12.574c0.434-0.429 1.134-0.429 1.565 0 0.432 0.429 0.435 1.122 0 1.55l-6.253 6.128c-0.432 0.429-1.131 0.429-1.566 0l-6.253-6.128c-0.432-0.427-0.432-1.122 0-1.55 0.434-0.429 1.134-0.429 1.565 0l5.474 5.026 5.469-5.026z"></path>
  </symbol>

  <symbol id="icon-chevron-right" viewBox="0 0 32 32">
    <path d="M17.6 16l-5.026-5.472c-0.429-0.432-0.429-1.131 0-1.565 0.429-0.432 1.122-0.432 1.55 0l6.128 6.253c0.429 0.434 0.429 1.134 0 1.566l-6.128 6.253c-0.427 0.435-1.122 0.432-1.55 0-0.429-0.43-0.429-1.131 0-1.565l5.026-5.47z"></path>
  </symbol>
  
  <symbol id="icon-profile-male" viewBox="0 0 36 32">
    <path d="M0.5 31.983c0.268 0.067 0.542-0.088 0.612-0.354 1.030-3.843 5.216-4.839 7.718-5.435 0.627-0.149 1.122-0.267 1.444-0.406 2.85-1.237 3.779-3.227 4.057-4.679 0.034-0.175-0.029-0.355-0.165-0.473-1.484-1.281-2.736-3.204-3.526-5.416-0.022-0.063-0.057-0.121-0.103-0.171-1.045-1.136-1.645-2.337-1.645-3.294 0-0.559 0.211-0.934 0.686-1.217 0.145-0.087 0.236-0.24 0.243-0.408 0.221-5.094 3.849-9.104 8.299-9.13 0.005 0 0.102 0.007 0.107 0.007 4.472 0.062 8.077 4.158 8.206 9.324 0.004 0.143 0.068 0.277 0.178 0.369 0.313 0.265 0.459 0.601 0.459 1.057 0 0.801-0.427 1.786-1.201 2.772-0.037 0.047-0.065 0.101-0.084 0.158-0.8 2.536-2.236 4.775-3.938 6.145-0.144 0.116-0.212 0.302-0.178 0.483 0.278 1.451 1.207 3.44 4.057 4.679 0.337 0.146 0.86 0.26 1.523 0.403 2.477 0.536 6.622 1.435 7.639 5.232 0.060 0.223 0.262 0.37 0.482 0.37 0.043 0 0.086-0.006 0.13-0.017 0.267-0.072 0.425-0.346 0.354-0.613-1.175-4.387-5.871-5.404-8.393-5.95-0.585-0.127-1.090-0.236-1.336-0.344-1.86-0.808-3.006-2.039-3.411-3.665 1.727-1.483 3.172-3.771 3.998-6.337 0.877-1.14 1.359-2.314 1.359-3.317 0-0.669-0.216-1.227-0.644-1.663-0.238-5.604-4.237-10.017-9.2-10.088l-0.149-0.002c-4.873 0.026-8.889 4.323-9.24 9.83-0.626 0.46-0.944 1.105-0.944 1.924 0 1.183 0.669 2.598 1.84 3.896 0.809 2.223 2.063 4.176 3.556 5.543-0.403 1.632-1.55 2.867-3.414 3.676-0.241 0.105-0.721 0.22-1.277 0.352-2.541 0.604-7.269 1.729-8.453 6.147-0.071 0.267 0.087 0.54 0.354 0.612z"></path>
  </symbol>
</defs>
</svg>
